<?xml version="1.0" encoding="UTF-8"?>
<!DOCTYPE svg PUBLIC "-//W3C//DTD SVG 1.1//EN" "http://www.w3.org/Graphics/SVG/1.1/DTD/svg11.dtd">
<!-- Creator: CorelDRAW 2019 (64-Bit) -->
<svg xmlns="http://www.w3.org/2000/svg" xml:space="preserve" width="100%" height="100%" version="1.1" style="shape-rendering:geometricPrecision; text-rendering:geometricPrecision; image-rendering:optimizeQuality; fill-rule:evenodd; clip-rule:evenodd"
viewBox="0 0 6608.24 1304.13"
 xmlns:xlink="http://www.w3.org/1999/xlink"
 xmlns:xodm="http://www.corel.com/coreldraw/odm/2003">
 <defs>
  <style type="text/css">
   <![CDATA[
    .fil0 {fill:white}
    .fil1 {fill:white;fill-rule:nonzero}
   ]]>
  </style>
 </defs>
 <g id="Layer_x0020_1">
  <metadata id="CorelCorpID_0Corel-Layer"/>
  <path class="fil0" d="M580.2 0c-320.44,0 -580.2,259.77 -580.2,580.2 0,320.44 259.76,580.21 580.2,580.21l116.03 0c32.01,-0.09 57.93,-26.02 58.01,-58.03l0 -87.85 -174.06 0c-82.56,0.1 -163.44,-23.38 -233.11,-67.67 -8.75,-5.56 -13.87,-15.37 -13.43,-25.72 0.44,-10.36 6.38,-19.69 15.56,-24.49 9.19,-4.8 20.24,-4.33 28.99,1.23 60.37,38.38 130.45,58.71 201.99,58.62l174.06 0 0 -86.24c-0.1,-31.99 -26.01,-57.9 -58.01,-57.99l-116.03 0c-128.18,0 -232.08,-103.91 -232.08,-232.08 0,-128.18 103.9,-232.08 232.08,-232.08 128.17,0 232.07,103.9 232.07,232.08l0 522.17c0.08,32.02 26.02,57.95 58.03,58.03l232.02 0c32.03,-0.09 57.98,-26.02 58.09,-58.05l0 -522.12c0,-320.44 -259.77,-580.22 -580.21,-580.22zm241.4 251.52c-8.36,13.15 -25.8,17.04 -38.96,8.68 -149.42,-94.69 -344.54,-73.08 -469.63,52.01 -125.08,125.09 -146.69,320.2 -52,469.63 5.66,8.51 6.27,19.42 1.61,28.51 -4.67,9.09 -13.88,14.95 -24.1,15.31 -10.21,0.36 -19.82,-4.82 -25.12,-13.56 -108.88,-171.73 -84.07,-396.01 59.71,-539.8 143.78,-143.78 368.06,-168.59 539.79,-59.71 13.13,8.36 17.02,25.78 8.69,38.93l0.01 0zm164.73 763.04c16.02,0 29.02,-12.99 29.02,-29.01l0 -406.19c0.09,-82.57 -23.39,-163.44 -67.68,-233.12 -5.56,-8.75 -15.36,-13.86 -25.72,-13.42 -10.36,0.44 -19.69,6.37 -24.49,15.56 -4.79,9.19 -4.32,20.24 1.24,28.99 38.37,60.37 58.71,130.45 58.62,201.99l0 406.19c0,16.02 12.99,29.01 29.01,29.01z"/>
  <path class="fil1" d="M1595.76 819.73l0 -509.95 208.12 0 0 509.95c0,51.12 12.57,90.47 37.73,118.06 25.15,27.59 62.07,41.38 110.75,41.38 48.69,0 86.01,-13.79 111.97,-41.38 25.97,-27.59 38.95,-66.94 38.95,-118.06l0 -509.95 208.12 0 0 509.95c0,75.46 -17.85,140.78 -53.55,195.95 -34.89,54.37 -79.52,94.12 -133.88,119.28 -53.55,25.15 -111.97,37.73 -175.26,37.73 -98.99,0 -182.56,-30.83 -250.72,-92.5 -68.16,-61.67 -102.23,-148.48 -102.23,-260.46zm1545 -248.28c0,57.61 -20.69,113.19 -62.07,166.74 -21.9,27.59 -54.77,50.3 -98.58,68.16 -43,17.04 -94.11,25.55 -153.35,25.55l-129.01 0 0 332.27 -208.11 0 0 -854.39 337.12 0c99,0 176.08,25.55 231.24,76.67 55.19,51.12 82.76,112.79 82.76,185zm-443.01 102.23l129.01 0c31.64,0 56.41,-9.33 74.24,-27.99 18.68,-18.66 27.99,-43 27.99,-73.02 0,-30.84 -9.31,-55.99 -27.99,-75.46 -18.65,-19.48 -43.39,-29.21 -74.24,-29.21l-129.01 0 0 205.68zm956.25 499.01c-122.5,0 -226.37,-41.38 -311.57,-124.14 -84.38,-82.77 -126.58,-187.44 -126.58,-314.01 0,-126.58 42.2,-230.84 126.58,-312.79 85.2,-82.76 189.07,-124.15 311.57,-124.15 123.35,0 226.8,41.39 310.36,124.15 84.4,81.95 126.58,186.21 126.58,312.79 0,71.4 -14.61,137.12 -43.82,197.17 -28.39,59.23 -67.73,108.72 -118.06,148.48l174.05 223.94 -251.94 0 -103.45 -141.18c-32.44,6.49 -63.69,9.74 -93.72,9.74zm-165.52 -617.06c-40.56,44.62 -60.85,104.26 -60.85,178.91 0,74.64 20.29,134.28 60.85,178.91 41.38,44.63 96.15,66.94 164.31,66.94 68.97,0 123.74,-22.31 164.3,-66.94 41.38,-44.63 62.07,-104.27 62.07,-178.91 0,-74.65 -20.69,-134.29 -62.07,-178.91 -40.56,-44.63 -95.33,-66.94 -164.3,-66.94 -68.16,0 -122.93,22.31 -164.31,66.94zm1294.92 357.82c41.38,-44.63 62.08,-104.27 62.08,-178.91 0,-74.65 -20.7,-134.29 -62.08,-178.91 -40.56,-44.63 -95.33,-66.94 -164.3,-66.94 -68.16,0 -122.93,22.31 -164.31,66.94 -40.56,44.62 -60.85,104.26 -60.85,178.91 0,74.64 20.29,134.28 60.85,178.91 41.38,44.63 96.15,66.94 164.31,66.94 68.97,0 123.74,-22.31 164.3,-66.94zm-474.66 135.1c-84.37,-82.77 -126.58,-187.44 -126.58,-314.01 0,-126.58 42.21,-230.84 126.58,-312.79 85.2,-82.76 189.05,-124.15 311.57,-124.15 123.33,0 226.78,41.39 310.36,124.15 84.38,81.95 126.58,186.21 126.58,312.79 0,126.57 -42.2,231.24 -126.58,314.01 -84.37,82.76 -187.83,124.14 -310.36,124.14 -122.52,0 -226.37,-41.38 -311.57,-124.14zm1090.61 -42.6l92.5 0c79.51,0 142,-24.34 187.43,-73.03 45.43,-48.68 68.16,-114 68.16,-195.95 0,-81.95 -22.73,-147.27 -68.16,-195.95 -45.43,-48.68 -107.92,-73.02 -187.43,-73.02l-92.5 0 0 537.95zm92.5 -696.17c136.32,0 248.29,39.75 335.92,119.27 87.63,78.71 131.44,181.35 131.44,307.92 0,125.77 -43.81,228.41 -131.44,307.92 -87.63,79.52 -199.6,119.28 -335.92,119.28l-300.62 0 0 -854.39 300.62 0zm1116.39 -2.44l0 158.22 -309.14 0 0 183.78 272.62 0 0 158.22 -272.62 0 0 198.39 309.14 0 0 158.22 -517.27 0 0 -856.83 517.27 0z"/>
 </g>
</svg>
